<svg xmlns="http://www.w3.org/2000/svg" xmlns:xlink="http://www.w3.org/1999/xlink" contentStyleType="text/css" data-diagram-type="CLASS" height="743px" preserveAspectRatio="none" style="width:1445px;height:743px;background:#FFFFFF;" version="1.1" viewBox="0 0 1445 743" width="1445px" zoomAndPan="magnify"><title>Code &#8212; DeviceRegistry: ManageDeviceRequestHandler</title><defs/><g><g class="title" data-source-line="1"><text fill="#000000" font-family="sans-serif" font-size="14" font-weight="bold" lengthAdjust="spacing" textLength="371.123" x="530.3203" y="25.1074">Code &#8212; DeviceRegistry: ManageDeviceRequestHandler</text></g><!--class ManageDeviceRequestHandler--><g class="entity" data-entity="ManageDeviceRequestHandler" data-source-line="3" data-uid="ent0002" id="entity_ManageDeviceRequestHandler"><rect fill="#F1F1F1" height="85.2422" rx="2.5" ry="2.5" style="stroke:#181818;stroke-width:0.5;" width="576.9492" x="216.5" y="46.6211"/><ellipse cx="403.4458" cy="62.6211" fill="#ADD1B2" rx="11" ry="11" style="stroke:#181818;stroke-width:1;"/><path d="M406.2114,58.4961 Q406.3677,58.2773 406.5552,58.168 Q406.7427,58.0586 406.9614,58.0586 Q407.3364,58.0586 407.5708,58.3242 Q407.8052,58.5742 407.8052,59.1836 L407.8052,60.6367 Q407.8052,61.2461 407.5708,61.5117 Q407.3364,61.7773 406.9614,61.7773 Q406.6177,61.7773 406.4146,61.5742 Q406.2114,61.3867 406.1021,60.8711 Q406.0552,60.5117 405.8677,60.3242 Q405.5396,59.9492 404.9302,59.7305 Q404.3208,59.5117 403.6958,59.5117 Q402.9302,59.5117 402.2896,59.8398 Q401.6646,60.168 401.1646,60.918 Q400.6802,61.668 400.6802,62.6992 L400.6802,63.793 Q400.6802,65.0273 401.5708,65.8555 Q402.4614,66.668 404.0552,66.668 Q404.9927,66.668 405.6489,66.418 Q406.0396,66.2617 406.4614,65.8242 Q406.7271,65.5586 406.8677,65.4805 Q407.0239,65.4023 407.2271,65.4023 Q407.5552,65.4023 407.8052,65.668 Q408.0708,65.918 408.0708,66.2617 Q408.0708,66.6055 407.7271,67.0117 Q407.2271,67.5898 406.4302,67.918 Q405.3521,68.3711 404.0552,68.3711 Q402.5396,68.3711 401.3364,67.7461 Q400.3521,67.2461 399.6646,66.1836 Q398.9771,65.1055 398.9771,63.8242 L398.9771,62.668 Q398.9771,61.3398 399.5864,60.1992 Q400.2114,59.043 401.3052,58.4336 Q402.3989,57.8086 403.6333,57.8086 Q404.3677,57.8086 405.0083,57.9805 Q405.6646,58.1367 406.2114,58.4961 Z " fill="#000000"/><text fill="#000000" font-family="sans-serif" font-size="14" lengthAdjust="spacing" textLength="194.5576" x="423.9458" y="68.418">ManageDeviceRequestHandler</text><line style="stroke:#181818;stroke-width:0.5;" x1="217.5" x2="792.4492" y1="78.6211" y2="78.6211"/><line style="stroke:#181818;stroke-width:0.5;" x1="217.5" x2="792.4492" y1="86.6211" y2="86.6211"/><ellipse cx="227.5" cy="101.4316" fill="#84BE84" rx="3" ry="3" style="stroke:#038048;stroke-width:1;"/><text fill="#000000" font-family="sans-serif" font-size="14" lengthAdjust="spacing" textLength="550.9492" x="236.5" y="105.7285">Handle(command: ManageDeviceRequest, cancellationToken: CancellationToken): Task</text><rect fill="#F24D5C" height="6" style="stroke:#C82930;stroke-width:1;" width="6" x="224.5" y="117.0527"/><text fill="#000000" font-family="sans-serif" font-size="14" lengthAdjust="spacing" textLength="347.8398" x="236.5" y="124.3496">Save(command: ManageDeviceRequest): Task&lt;Guid?&gt;</text></g><!--class ManageDeviceRequest--><g class="entity" data-entity="ManageDeviceRequest" data-source-line="8" data-uid="ent0003" id="entity_ManageDeviceRequest"><rect fill="#F1F1F1" height="66.6211" rx="2.5" ry="2.5" style="stroke:#181818;stroke-width:0.5;" width="177.5303" x="7" y="219.6211"/><ellipse cx="22" cy="235.6211" fill="#ADD1B2" rx="11" ry="11" style="stroke:#181818;stroke-width:1;"/><path d="M24.7656,231.4961 Q24.9219,231.2773 25.1094,231.168 Q25.2969,231.0586 25.5156,231.0586 Q25.8906,231.0586 26.125,231.3242 Q26.3594,231.5742 26.3594,232.1836 L26.3594,233.6367 Q26.3594,234.2461 26.125,234.5117 Q25.8906,234.7773 25.5156,234.7773 Q25.1719,234.7773 24.9688,234.5742 Q24.7656,234.3867 24.6563,233.8711 Q24.6094,233.5117 24.4219,233.3242 Q24.0938,232.9492 23.4844,232.7305 Q22.875,232.5117 22.25,232.5117 Q21.4844,232.5117 20.8438,232.8398 Q20.2188,233.168 19.7188,233.918 Q19.2344,234.668 19.2344,235.6992 L19.2344,236.793 Q19.2344,238.0273 20.125,238.8555 Q21.0156,239.668 22.6094,239.668 Q23.5469,239.668 24.2031,239.418 Q24.5938,239.2617 25.0156,238.8242 Q25.2813,238.5586 25.4219,238.4805 Q25.5781,238.4023 25.7813,238.4023 Q26.1094,238.4023 26.3594,238.668 Q26.625,238.918 26.625,239.2617 Q26.625,239.6055 26.2813,240.0117 Q25.7813,240.5898 24.9844,240.918 Q23.9063,241.3711 22.6094,241.3711 Q21.0938,241.3711 19.8906,240.7461 Q18.9063,240.2461 18.2188,239.1836 Q17.5313,238.1055 17.5313,236.8242 L17.5313,235.668 Q17.5313,234.3398 18.1406,233.1992 Q18.7656,232.043 19.8594,231.4336 Q20.9531,230.8086 22.1875,230.8086 Q22.9219,230.8086 23.5625,230.9805 Q24.2188,231.1367 24.7656,231.4961 Z " fill="#000000"/><text fill="#000000" font-family="sans-serif" font-size="14" lengthAdjust="spacing" textLength="145.5303" x="36" y="241.418">ManageDeviceRequest</text><line style="stroke:#181818;stroke-width:0.5;" x1="8" x2="183.5303" y1="251.6211" y2="251.6211"/><ellipse cx="18" cy="266.4316" fill="none" rx="3" ry="3" style="stroke:#038048;stroke-width:1;"/><text fill="#000000" font-family="sans-serif" font-size="14" lengthAdjust="spacing" textLength="140.0684" x="27" y="270.7285">DeviceInfo: DeviceInfo</text><line style="stroke:#181818;stroke-width:0.5;" x1="8" x2="183.5303" y1="278.2422" y2="278.2422"/></g><!--class DeviceInfo--><g class="entity" data-entity="DeviceInfo" data-source-line="12" data-uid="ent0004" id="entity_DeviceInfo"><rect fill="#F1F1F1" height="141.1055" rx="2.5" ry="2.5" style="stroke:#181818;stroke-width:0.5;" width="141.9512" x="25" y="374.6211"/><ellipse cx="59.713" cy="390.6211" fill="#ADD1B2" rx="11" ry="11" style="stroke:#181818;stroke-width:1;"/><path d="M62.4786,386.4961 Q62.6349,386.2773 62.8224,386.168 Q63.0099,386.0586 63.2286,386.0586 Q63.6036,386.0586 63.838,386.3242 Q64.0724,386.5742 64.0724,387.1836 L64.0724,388.6367 Q64.0724,389.2461 63.838,389.5117 Q63.6036,389.7773 63.2286,389.7773 Q62.8849,389.7773 62.6817,389.5742 Q62.4786,389.3867 62.3692,388.8711 Q62.3224,388.5117 62.1349,388.3242 Q61.8067,387.9492 61.1974,387.7305 Q60.588,387.5117 59.963,387.5117 Q59.1974,387.5117 58.5567,387.8398 Q57.9317,388.168 57.4317,388.918 Q56.9474,389.668 56.9474,390.6992 L56.9474,391.793 Q56.9474,393.0273 57.838,393.8555 Q58.7286,394.668 60.3224,394.668 Q61.2599,394.668 61.9161,394.418 Q62.3067,394.2617 62.7286,393.8242 Q62.9942,393.5586 63.1349,393.4805 Q63.2911,393.4023 63.4942,393.4023 Q63.8224,393.4023 64.0724,393.668 Q64.338,393.918 64.338,394.2617 Q64.338,394.6055 63.9942,395.0117 Q63.4942,395.5898 62.6974,395.918 Q61.6192,396.3711 60.3224,396.3711 Q58.8067,396.3711 57.6036,395.7461 Q56.6192,395.2461 55.9317,394.1836 Q55.2442,393.1055 55.2442,391.8242 L55.2442,390.668 Q55.2442,389.3398 55.8536,388.1992 Q56.4786,387.043 57.5724,386.4336 Q58.6661,385.8086 59.9005,385.8086 Q60.6349,385.8086 61.2755,385.9805 Q61.9317,386.1367 62.4786,386.4961 Z " fill="#000000"/><text fill="#000000" font-family="sans-serif" font-size="14" lengthAdjust="spacing" textLength="66.1445" x="78.0937" y="396.418">DeviceInfo</text><line style="stroke:#181818;stroke-width:0.5;" x1="26" x2="165.9512" y1="406.6211" y2="406.6211"/><ellipse cx="36" cy="421.4316" fill="none" rx="3" ry="3" style="stroke:#038048;stroke-width:1;"/><text fill="#000000" font-family="sans-serif" font-size="14" lengthAdjust="spacing" textLength="96.4824" x="45" y="425.7285">DeviceId: string</text><ellipse cx="36" cy="440.0527" fill="none" rx="3" ry="3" style="stroke:#038048;stroke-width:1;"/><text fill="#000000" font-family="sans-serif" font-size="14" lengthAdjust="spacing" textLength="83.248" x="45" y="444.3496">UserId: string</text><ellipse cx="36" cy="458.6738" fill="none" rx="3" ry="3" style="stroke:#038048;stroke-width:1;"/><text fill="#000000" font-family="sans-serif" font-size="14" lengthAdjust="spacing" textLength="73.1377" x="45" y="462.9707">Type: string</text><ellipse cx="36" cy="477.2949" fill="none" rx="3" ry="3" style="stroke:#038048;stroke-width:1;"/><text fill="#000000" font-family="sans-serif" font-size="14" lengthAdjust="spacing" textLength="115.9512" x="45" y="481.5918">State: DeviceState</text><ellipse cx="36" cy="495.916" fill="none" rx="3" ry="3" style="stroke:#038048;stroke-width:1;"/><text fill="#000000" font-family="sans-serif" font-size="14" lengthAdjust="spacing" textLength="112.041" x="45" y="500.2129">Description: string</text><line style="stroke:#181818;stroke-width:0.5;" x1="26" x2="165.9512" y1="507.7266" y2="507.7266"/></g><!--class DeviceState--><g class="entity" data-entity="DeviceState" data-source-line="20" data-uid="ent0005" id="entity_DeviceState"><rect fill="#F1F1F1" height="122.4844" rx="2.5" ry="2.5" style="stroke:#181818;stroke-width:0.5;" width="107.4824" x="42.5" y="595.6211"/><ellipse cx="57.5" cy="611.6211" fill="#EB937F" rx="11" ry="11" style="stroke:#181818;stroke-width:1;"/><path d="M56.3594,612.418 L56.3594,614.918 L60.6875,614.918 L60.6875,613.9961 Q60.6875,613.3867 60.9219,613.1211 Q61.1719,612.8555 61.5469,612.8555 Q61.9219,612.8555 62.1563,613.1211 Q62.3906,613.3867 62.3906,613.9961 L62.3906,616.6211 L54.3906,616.6211 Q53.7656,616.6211 53.5,616.3867 Q53.25,616.1523 53.25,615.7617 Q53.25,615.3867 53.5156,615.1523 Q53.7813,614.918 54.3906,614.918 L54.6563,614.918 L54.6563,608.2617 L54.3906,608.2617 Q53.7656,608.2617 53.5,608.0273 Q53.25,607.793 53.25,607.4023 Q53.25,607.0273 53.5,606.793 Q53.7656,606.5586 54.3906,606.5586 L62.0156,606.5586 L62.0156,609.1523 Q62.0156,609.7617 61.7813,610.0273 Q61.5625,610.2773 61.1719,610.2773 Q60.7969,610.2773 60.5625,610.0273 Q60.3281,609.7617 60.3281,609.1523 L60.3281,608.2617 L56.3594,608.2617 L56.3594,610.7148 L57.8438,610.7148 Q57.8438,610.0586 57.9688,609.8711 Q58.2344,609.4648 58.7031,609.4648 Q59.0781,609.4648 59.3125,609.7305 Q59.5469,609.9805 59.5469,610.5898 L59.5469,612.5586 Q59.5469,613.1055 59.4219,613.293 Q59.1563,613.6836 58.7031,613.6836 Q58.2344,613.6836 57.9688,613.2773 Q57.8438,613.0898 57.8438,612.418 L56.3594,612.418 Z " fill="#000000"/><text fill="#000000" font-family="sans-serif" font-size="14" lengthAdjust="spacing" textLength="75.4824" x="71.5" y="617.418">DeviceState</text><line style="stroke:#181818;stroke-width:0.5;" x1="43.5" x2="148.9824" y1="627.6211" y2="627.6211"/><text fill="#000000" font-family="sans-serif" font-size="14" lengthAdjust="spacing" textLength="40.4824" x="48.5" y="646.7285">Added</text><text fill="#000000" font-family="sans-serif" font-size="14" lengthAdjust="spacing" textLength="51.3789" x="48.5" y="665.3496">Enabled</text><text fill="#000000" font-family="sans-serif" font-size="14" lengthAdjust="spacing" textLength="54.4756" x="48.5" y="683.9707">Disabled</text><text fill="#000000" font-family="sans-serif" font-size="14" lengthAdjust="spacing" textLength="59.917" x="48.5" y="702.5918">Removed</text><line style="stroke:#181818;stroke-width:0.5;" x1="43.5" x2="148.9824" y1="710.1055" y2="710.1055"/></g><!--class DeviceInfoEvent--><g class="entity" data-entity="DeviceInfoEvent" data-source-line="27" data-uid="ent0006" id="entity_DeviceInfoEvent"><rect fill="#F1F1F1" height="85.2422" rx="2.5" ry="2.5" style="stroke:#181818;stroke-width:0.5;" width="133.9443" x="220" y="210.6211"/><ellipse cx="235" cy="226.6211" fill="#ADD1B2" rx="11" ry="11" style="stroke:#181818;stroke-width:1;"/><path d="M237.7656,222.4961 Q237.9219,222.2773 238.1094,222.168 Q238.2969,222.0586 238.5156,222.0586 Q238.8906,222.0586 239.125,222.3242 Q239.3594,222.5742 239.3594,223.1836 L239.3594,224.6367 Q239.3594,225.2461 239.125,225.5117 Q238.8906,225.7773 238.5156,225.7773 Q238.1719,225.7773 237.9688,225.5742 Q237.7656,225.3867 237.6563,224.8711 Q237.6094,224.5117 237.4219,224.3242 Q237.0938,223.9492 236.4844,223.7305 Q235.875,223.5117 235.25,223.5117 Q234.4844,223.5117 233.8438,223.8398 Q233.2188,224.168 232.7188,224.918 Q232.2344,225.668 232.2344,226.6992 L232.2344,227.793 Q232.2344,229.0273 233.125,229.8555 Q234.0156,230.668 235.6094,230.668 Q236.5469,230.668 237.2031,230.418 Q237.5938,230.2617 238.0156,229.8242 Q238.2813,229.5586 238.4219,229.4805 Q238.5781,229.4023 238.7813,229.4023 Q239.1094,229.4023 239.3594,229.668 Q239.625,229.918 239.625,230.2617 Q239.625,230.6055 239.2813,231.0117 Q238.7813,231.5898 237.9844,231.918 Q236.9063,232.3711 235.6094,232.3711 Q234.0938,232.3711 232.8906,231.7461 Q231.9063,231.2461 231.2188,230.1836 Q230.5313,229.1055 230.5313,227.8242 L230.5313,226.668 Q230.5313,225.3398 231.1406,224.1992 Q231.7656,223.043 232.8594,222.4336 Q233.9531,221.8086 235.1875,221.8086 Q235.9219,221.8086 236.5625,221.9805 Q237.2188,222.1367 237.7656,222.4961 Z " fill="#000000"/><text fill="#000000" font-family="sans-serif" font-size="14" lengthAdjust="spacing" textLength="101.9443" x="249" y="232.418">DeviceInfoEvent</text><line style="stroke:#181818;stroke-width:0.5;" x1="221" x2="352.9443" y1="242.6211" y2="242.6211"/><ellipse cx="231" cy="257.4316" fill="none" rx="3" ry="3" style="stroke:#038048;stroke-width:1;"/><text fill="#000000" font-family="sans-serif" font-size="14" lengthAdjust="spacing" textLength="56.8135" x="240" y="261.7285">Id: Guid?</text><ellipse cx="231" cy="276.0527" fill="none" rx="3" ry="3" style="stroke:#038048;stroke-width:1;"/><text fill="#000000" font-family="sans-serif" font-size="14" lengthAdjust="spacing" textLength="97.2754" x="240" y="280.3496">Info: DeviceInfo</text><line style="stroke:#181818;stroke-width:0.5;" x1="221" x2="352.9443" y1="287.8633" y2="287.8633"/></g><!--class DeviceRegistryDbContext--><g class="entity" data-entity="DeviceRegistryDbContext" data-source-line="32" data-uid="ent0007" id="entity_DeviceRegistryDbContext"><rect fill="#F1F1F1" height="85.2422" rx="2.5" ry="2.5" style="stroke:#181818;stroke-width:0.5;" width="230.6543" x="389.5" y="210.6211"/><ellipse cx="421.7674" cy="226.6211" fill="#ADD1B2" rx="11" ry="11" style="stroke:#181818;stroke-width:1;"/><path d="M424.5331,222.4961 Q424.6893,222.2773 424.8768,222.168 Q425.0643,222.0586 425.2831,222.0586 Q425.6581,222.0586 425.8924,222.3242 Q426.1268,222.5742 426.1268,223.1836 L426.1268,224.6367 Q426.1268,225.2461 425.8924,225.5117 Q425.6581,225.7773 425.2831,225.7773 Q424.9393,225.7773 424.7362,225.5742 Q424.5331,225.3867 424.4237,224.8711 Q424.3768,224.5117 424.1893,224.3242 Q423.8612,223.9492 423.2518,223.7305 Q422.6424,223.5117 422.0174,223.5117 Q421.2518,223.5117 420.6112,223.8398 Q419.9862,224.168 419.4862,224.918 Q419.0018,225.668 419.0018,226.6992 L419.0018,227.793 Q419.0018,229.0273 419.8924,229.8555 Q420.7831,230.668 422.3768,230.668 Q423.3143,230.668 423.9706,230.418 Q424.3612,230.2617 424.7831,229.8242 Q425.0487,229.5586 425.1893,229.4805 Q425.3456,229.4023 425.5487,229.4023 Q425.8768,229.4023 426.1268,229.668 Q426.3924,229.918 426.3924,230.2617 Q426.3924,230.6055 426.0487,231.0117 Q425.5487,231.5898 424.7518,231.918 Q423.6737,232.3711 422.3768,232.3711 Q420.8612,232.3711 419.6581,231.7461 Q418.6737,231.2461 417.9862,230.1836 Q417.2987,229.1055 417.2987,227.8242 L417.2987,226.668 Q417.2987,225.3398 417.9081,224.1992 Q418.5331,223.043 419.6268,222.4336 Q420.7206,221.8086 421.9549,221.8086 Q422.6893,221.8086 423.3299,221.9805 Q423.9862,222.1367 424.5331,222.4961 Z " fill="#000000"/><text fill="#000000" font-family="sans-serif" font-size="14" lengthAdjust="spacing" textLength="160.2822" x="439.6046" y="232.418">DeviceRegistryDbContext</text><line style="stroke:#181818;stroke-width:0.5;" x1="390.5" x2="619.1543" y1="242.6211" y2="242.6211"/><ellipse cx="400.5" cy="257.4316" fill="none" rx="3" ry="3" style="stroke:#038048;stroke-width:1;"/><text fill="#000000" font-family="sans-serif" font-size="14" lengthAdjust="spacing" textLength="190.6406" x="409.5" y="261.7285">Devices: DbSet&lt;DeviceEntity&gt;</text><line style="stroke:#181818;stroke-width:0.5;" x1="390.5" x2="619.1543" y1="269.2422" y2="269.2422"/><ellipse cx="400.5" cy="284.0527" fill="#84BE84" rx="3" ry="3" style="stroke:#038048;stroke-width:1;"/><text fill="#000000" font-family="sans-serif" font-size="14" lengthAdjust="spacing" textLength="204.6543" x="409.5" y="288.3496">SaveChangesAsync(): Task&lt;int&gt;</text></g><!--class DeviceEntity--><g class="entity" data-entity="DeviceEntity" data-source-line="37" data-uid="ent0008" id="entity_DeviceEntity"><rect fill="#F1F1F1" height="159.7266" rx="2.5" ry="2.5" style="stroke:#181818;stroke-width:0.5;" width="141.9512" x="434" y="576.6211"/><ellipse cx="463.465" cy="592.6211" fill="#ADD1B2" rx="11" ry="11" style="stroke:#181818;stroke-width:1;"/><path d="M466.2307,588.4961 Q466.3869,588.2773 466.5744,588.168 Q466.7619,588.0586 466.9807,588.0586 Q467.3557,588.0586 467.59,588.3242 Q467.8244,588.5742 467.8244,589.1836 L467.8244,590.6367 Q467.8244,591.2461 467.59,591.5117 Q467.3557,591.7773 466.9807,591.7773 Q466.6369,591.7773 466.4338,591.5742 Q466.2307,591.3867 466.1213,590.8711 Q466.0744,590.5117 465.8869,590.3242 Q465.5588,589.9492 464.9494,589.7305 Q464.34,589.5117 463.715,589.5117 Q462.9494,589.5117 462.3088,589.8398 Q461.6838,590.168 461.1838,590.918 Q460.6994,591.668 460.6994,592.6992 L460.6994,593.793 Q460.6994,595.0273 461.59,595.8555 Q462.4807,596.668 464.0744,596.668 Q465.0119,596.668 465.6682,596.418 Q466.0588,596.2617 466.4807,595.8242 Q466.7463,595.5586 466.8869,595.4805 Q467.0432,595.4023 467.2463,595.4023 Q467.5744,595.4023 467.8244,595.668 Q468.09,595.918 468.09,596.2617 Q468.09,596.6055 467.7463,597.0117 Q467.2463,597.5898 466.4494,597.918 Q465.3713,598.3711 464.0744,598.3711 Q462.5588,598.3711 461.3557,597.7461 Q460.3713,597.2461 459.6838,596.1836 Q458.9963,595.1055 458.9963,593.8242 L458.9963,592.668 Q458.9963,591.3398 459.6057,590.1992 Q460.2307,589.043 461.3244,588.4336 Q462.4182,587.8086 463.6525,587.8086 Q464.3869,587.8086 465.0275,587.9805 Q465.6838,588.1367 466.2307,588.4961 Z " fill="#000000"/><text fill="#000000" font-family="sans-serif" font-size="14" lengthAdjust="spacing" textLength="77.8066" x="480.6795" y="598.418">DeviceEntity</text><line style="stroke:#181818;stroke-width:0.5;" x1="435" x2="574.9512" y1="608.6211" y2="608.6211"/><ellipse cx="445" cy="623.4316" fill="none" rx="3" ry="3" style="stroke:#038048;stroke-width:1;"/><text fill="#000000" font-family="sans-serif" font-size="14" lengthAdjust="spacing" textLength="49.0273" x="454" y="627.7285">Id: Guid</text><ellipse cx="445" cy="642.0527" fill="none" rx="3" ry="3" style="stroke:#038048;stroke-width:1;"/><text fill="#000000" font-family="sans-serif" font-size="14" lengthAdjust="spacing" textLength="96.4824" x="454" y="646.3496">DeviceId: string</text><ellipse cx="445" cy="660.6738" fill="none" rx="3" ry="3" style="stroke:#038048;stroke-width:1;"/><text fill="#000000" font-family="sans-serif" font-size="14" lengthAdjust="spacing" textLength="83.248" x="454" y="664.9707">UserId: string</text><ellipse cx="445" cy="679.2949" fill="none" rx="3" ry="3" style="stroke:#038048;stroke-width:1;"/><text fill="#000000" font-family="sans-serif" font-size="14" lengthAdjust="spacing" textLength="73.1377" x="454" y="683.5918">Type: string</text><ellipse cx="445" cy="697.916" fill="none" rx="3" ry="3" style="stroke:#038048;stroke-width:1;"/><text fill="#000000" font-family="sans-serif" font-size="14" lengthAdjust="spacing" textLength="115.9512" x="454" y="702.2129">State: DeviceState</text><ellipse cx="445" cy="716.5371" fill="none" rx="3" ry="3" style="stroke:#038048;stroke-width:1;"/><text fill="#000000" font-family="sans-serif" font-size="14" lengthAdjust="spacing" textLength="112.041" x="454" y="720.834">Description: string</text><line style="stroke:#181818;stroke-width:0.5;" x1="435" x2="574.9512" y1="728.3477" y2="728.3477"/></g><!--class DbSet--><g class="entity" data-entity="DbSet" data-source-line="46" data-uid="ent0009" id="entity_DbSet"><rect fill="#F1F1F1" height="48" rx="2.5" ry="2.5" style="stroke:#181818;stroke-width:0.5;" width="82.2402" x="464" y="421.1211"/><ellipse cx="479" cy="437.1211" fill="#ADD1B2" rx="11" ry="11" style="stroke:#181818;stroke-width:1;"/><path d="M481.7656,432.9961 Q481.9219,432.7773 482.1094,432.668 Q482.2969,432.5586 482.5156,432.5586 Q482.8906,432.5586 483.125,432.8242 Q483.3594,433.0742 483.3594,433.6836 L483.3594,435.1367 Q483.3594,435.7461 483.125,436.0117 Q482.8906,436.2773 482.5156,436.2773 Q482.1719,436.2773 481.9688,436.0742 Q481.7656,435.8867 481.6563,435.3711 Q481.6094,435.0117 481.4219,434.8242 Q481.0938,434.4492 480.4844,434.2305 Q479.875,434.0117 479.25,434.0117 Q478.4844,434.0117 477.8438,434.3398 Q477.2188,434.668 476.7188,435.418 Q476.2344,436.168 476.2344,437.1992 L476.2344,438.293 Q476.2344,439.5273 477.125,440.3555 Q478.0156,441.168 479.6094,441.168 Q480.5469,441.168 481.2031,440.918 Q481.5938,440.7617 482.0156,440.3242 Q482.2813,440.0586 482.4219,439.9805 Q482.5781,439.9023 482.7813,439.9023 Q483.1094,439.9023 483.3594,440.168 Q483.625,440.418 483.625,440.7617 Q483.625,441.1055 483.2813,441.5117 Q482.7813,442.0898 481.9844,442.418 Q480.9063,442.8711 479.6094,442.8711 Q478.0938,442.8711 476.8906,442.2461 Q475.9063,441.7461 475.2188,440.6836 Q474.5313,439.6055 474.5313,438.3242 L474.5313,437.168 Q474.5313,435.8398 475.1406,434.6992 Q475.7656,433.543 476.8594,432.9336 Q477.9531,432.3086 479.1875,432.3086 Q479.9219,432.3086 480.5625,432.4805 Q481.2188,432.6367 481.7656,432.9961 Z " fill="#000000"/><text fill="#000000" font-family="sans-serif" font-size="14" lengthAdjust="spacing" textLength="38.9102" x="493" y="442.918">DbSet</text><rect fill="#FFFFFF" height="17.9609" style="stroke:#181818;stroke-width:1;stroke-dasharray:2,2;" width="9.3301" x="539.9102" y="418.1211"/><text fill="#000000" font-family="sans-serif" font-size="12" font-style="italic" lengthAdjust="spacing" textLength="7.3301" x="540.9102" y="432.0703">T</text><line style="stroke:#181818;stroke-width:0.5;" x1="465" x2="545.2402" y1="453.1211" y2="453.1211"/><line style="stroke:#181818;stroke-width:0.5;" x1="465" x2="545.2402" y1="461.1211" y2="461.1211"/></g><!--class IMapper--><g class="entity" data-entity="IMapper" data-source-line="48" data-uid="ent0010" id="entity_IMapper"><rect fill="#F1F1F1" height="85.2422" rx="2.5" ry="2.5" style="stroke:#181818;stroke-width:0.5;" width="285.8955" x="656" y="210.6211"/><ellipse cx="769.0186" cy="226.6211" fill="#B4A7E5" rx="11" ry="11" style="stroke:#181818;stroke-width:1;"/><path d="M769.9717,223.2617 L769.9717,229.918 L771.6904,229.918 Q772.2998,229.918 772.5654,230.1523 Q772.8311,230.3867 772.8311,230.7773 Q772.8311,231.1523 772.5654,231.3867 Q772.2998,231.6211 771.6904,231.6211 L766.5498,231.6211 Q765.9404,231.6211 765.6748,231.3867 Q765.4092,231.1523 765.4092,230.7617 Q765.4092,230.3867 765.6748,230.1523 Q765.9404,229.918 766.5498,229.918 L768.2686,229.918 L768.2686,223.2617 L766.5498,223.2617 Q765.9404,223.2617 765.6748,223.0273 Q765.4092,222.793 765.4092,222.4023 Q765.4092,222.0273 765.6748,221.793 Q765.9404,221.5586 766.5498,221.5586 L771.6904,221.5586 Q772.2998,221.5586 772.5654,221.793 Q772.8311,222.0273 772.8311,222.4023 Q772.8311,222.793 772.5654,223.0273 Q772.2998,223.2617 771.6904,223.2617 L769.9717,223.2617 Z " fill="#000000"/><text fill="#000000" font-family="sans-serif" font-size="14" font-style="italic" lengthAdjust="spacing" textLength="51.3584" x="789.5186" y="232.418">IMapper</text><line style="stroke:#181818;stroke-width:0.5;" x1="657" x2="940.8955" y1="242.6211" y2="242.6211"/><line style="stroke:#181818;stroke-width:0.5;" x1="657" x2="940.8955" y1="250.6211" y2="250.6211"/><ellipse cx="667" cy="265.4316" fill="#84BE84" rx="3" ry="3" style="stroke:#038048;stroke-width:1;"/><text fill="#000000" font-family="sans-serif" font-size="14" lengthAdjust="spacing" textLength="259.8955" x="676" y="269.7285">Map&lt;TDestination&gt;(source): TDestination</text><ellipse cx="667" cy="284.0527" fill="#84BE84" rx="3" ry="3" style="stroke:#038048;stroke-width:1;"/><text fill="#000000" font-family="sans-serif" font-size="14" lengthAdjust="spacing" textLength="187.5371" x="676" y="288.3496">Map(source, destination): void</text></g><!--class IPublishEndpoint--><g class="entity" data-entity="IPublishEndpoint" data-source-line="53" data-uid="ent0011" id="entity_IPublishEndpoint"><rect fill="#F1F1F1" height="66.6211" rx="2.5" ry="2.5" style="stroke:#181818;stroke-width:0.5;" width="461.7637" x="977" y="219.6211"/><ellipse cx="1151.0942" cy="235.6211" fill="#B4A7E5" rx="11" ry="11" style="stroke:#181818;stroke-width:1;"/><path d="M1152.0474,232.2617 L1152.0474,238.918 L1153.7661,238.918 Q1154.3755,238.918 1154.6411,239.1523 Q1154.9067,239.3867 1154.9067,239.7773 Q1154.9067,240.1523 1154.6411,240.3867 Q1154.3755,240.6211 1153.7661,240.6211 L1148.6255,240.6211 Q1148.0161,240.6211 1147.7505,240.3867 Q1147.4849,240.1523 1147.4849,239.7617 Q1147.4849,239.3867 1147.7505,239.1523 Q1148.0161,238.918 1148.6255,238.918 L1150.3442,238.918 L1150.3442,232.2617 L1148.6255,232.2617 Q1148.0161,232.2617 1147.7505,232.0273 Q1147.4849,231.793 1147.4849,231.4023 Q1147.4849,231.0273 1147.7505,230.793 Q1148.0161,230.5586 1148.6255,230.5586 L1153.7661,230.5586 Q1154.3755,230.5586 1154.6411,230.793 Q1154.9067,231.0273 1154.9067,231.4023 Q1154.9067,231.793 1154.6411,232.0273 Q1154.3755,232.2617 1153.7661,232.2617 L1152.0474,232.2617 Z " fill="#000000"/><text fill="#000000" font-family="sans-serif" font-size="14" font-style="italic" lengthAdjust="spacing" textLength="105.0752" x="1171.5942" y="241.418">IPublishEndpoint</text><line style="stroke:#181818;stroke-width:0.5;" x1="978" x2="1437.7637" y1="251.6211" y2="251.6211"/><line style="stroke:#181818;stroke-width:0.5;" x1="978" x2="1437.7637" y1="259.6211" y2="259.6211"/><ellipse cx="988" cy="274.4316" fill="#84BE84" rx="3" ry="3" style="stroke:#038048;stroke-width:1;"/><text fill="#000000" font-family="sans-serif" font-size="14" lengthAdjust="spacing" textLength="435.7637" x="997" y="278.7285">Publish&lt;T&gt;(message: T, cancellationToken: CancellationToken): Task</text></g><!--link ManageDeviceRequestHandler to DeviceRegistryDbContext--><g class="link" data-entity-1="ManageDeviceRequestHandler" data-entity-2="DeviceRegistryDbContext" data-source-line="57" data-uid="lnk12" id="link_ManageDeviceRequestHandler_DeviceRegistryDbContext"><path codeLine="57" d="M505,131.8411 C505,156.0311 505,180.3811 505,204.5411" fill="none" id="ManageDeviceRequestHandler-to-DeviceRegistryDbContext" style="stroke:#181818;stroke-width:1;"/><polygon fill="#181818" points="505,210.5411,509,201.5411,505,205.5411,501,201.5411,505,210.5411" style="stroke:#181818;stroke-width:1;"/><text fill="#000000" font-family="sans-serif" font-size="13" lengthAdjust="spacing" textLength="14.46" x="506" y="176.6494">db</text></g><!--link ManageDeviceRequestHandler to IMapper--><g class="link" data-entity-1="ManageDeviceRequestHandler" data-entity-2="IMapper" data-source-line="58" data-uid="lnk13" id="link_ManageDeviceRequestHandler_IMapper"><path codeLine="58" d="M580.33,131.6311 C624.31,155.8611 674.365,183.4454 718.355,207.6854" fill="none" id="ManageDeviceRequestHandler-to-IMapper" style="stroke:#181818;stroke-width:1;"/><polygon fill="#181818" points="723.61,210.5811,717.658,202.7342,719.2308,208.168,713.797,209.7409,723.61,210.5811" style="stroke:#181818;stroke-width:1;"/><text fill="#000000" font-family="sans-serif" font-size="13" lengthAdjust="spacing" textLength="44.0781" x="662" y="176.6494">mapper</text></g><!--link ManageDeviceRequestHandler to IPublishEndpoint--><g class="link" data-entity-1="ManageDeviceRequestHandler" data-entity-2="IPublishEndpoint" data-source-line="59" data-uid="lnk14" id="link_ManageDeviceRequestHandler_IPublishEndpoint"><path codeLine="59" d="M685.13,131.6311 C803.82,158.9811 951.1733,192.9333 1061.0133,218.2533" fill="none" id="ManageDeviceRequestHandler-to-IPublishEndpoint" style="stroke:#181818;stroke-width:1;"/><polygon fill="#181818" points="1066.86,219.6011,1058.9885,213.6817,1061.9878,218.478,1057.1915,221.4772,1066.86,219.6011" style="stroke:#181818;stroke-width:1;"/><text fill="#000000" font-family="sans-serif" font-size="13" lengthAdjust="spacing" textLength="85.2808" x="879" y="176.6494">rabbitEndPoint</text></g><!--link ManageDeviceRequestHandler to ManageDeviceRequest--><g class="link" data-entity-1="ManageDeviceRequestHandler" data-entity-2="ManageDeviceRequest" data-source-line="60" data-uid="lnk15" id="link_ManageDeviceRequestHandler_ManageDeviceRequest"><path codeLine="60" d="M380.54,131.6911 C353.82,141.1311 325.85,151.4011 300,161.6211 C254.78,179.5011 210.3273,199.1075 171.1973,216.9875" fill="none" id="ManageDeviceRequestHandler-to-ManageDeviceRequest" style="stroke:#181818;stroke-width:1;stroke-dasharray:7,7;"/><polygon fill="#181818" points="165.74,219.4811,175.5883,219.3788,170.2877,217.4031,172.2635,212.1025,165.74,219.4811" style="stroke:#181818;stroke-width:1;"/></g><!--link ManageDeviceRequest to DeviceInfo--><g class="link" data-entity-1="ManageDeviceRequest" data-entity-2="DeviceInfo" data-source-line="61" data-uid="lnk16" id="link_ManageDeviceRequest_DeviceInfo"><path codeLine="61" d="M96,286.7811 C96,310.8711 96,338.5211 96,368.5311" fill="none" id="ManageDeviceRequest-to-DeviceInfo" style="stroke:#181818;stroke-width:1;"/><polygon fill="#181818" points="96,374.5311,100,365.5311,96,369.5311,92,365.5311,96,374.5311" style="stroke:#181818;stroke-width:1;"/></g><!--link DeviceInfo to DeviceState--><g class="link" data-entity-1="DeviceInfo" data-entity-2="DeviceState" data-source-line="62" data-uid="lnk17" id="link_DeviceInfo_DeviceState"><path codeLine="62" d="M96,515.8811 C96,541.5911 96,564.4811 96,589.2911" fill="none" id="DeviceInfo-to-DeviceState" style="stroke:#181818;stroke-width:1;"/><polygon fill="#181818" points="96,595.2911,100,586.2911,96,590.2911,92,586.2911,96,595.2911" style="stroke:#181818;stroke-width:1;"/></g><!--link DeviceRegistryDbContext to DbSet--><g class="link" data-entity-1="DeviceRegistryDbContext" data-entity-2="DbSet" data-source-line="63" data-uid="lnk18" id="link_DeviceRegistryDbContext_DbSet"><path codeLine="63" d="M505,295.8211 C505,334.2711 505,383.9511 505,414.9911" fill="none" id="DeviceRegistryDbContext-to-DbSet" style="stroke:#181818;stroke-width:1;"/><polygon fill="#181818" points="505,420.9911,509,411.9911,505,415.9911,501,411.9911,505,420.9911" style="stroke:#181818;stroke-width:1;"/><text fill="#000000" font-family="sans-serif" font-size="13" lengthAdjust="spacing" textLength="46.2363" x="506" y="340.6494">Devices</text></g><!--link DbSet to DeviceEntity--><g class="link" data-entity-1="DbSet" data-entity-2="DeviceEntity" data-source-line="64" data-uid="lnk19" id="link_DbSet_DeviceEntity"><path codeLine="64" d="M505,469.3411 C505,495.1211 505,532.1511 505,570.3611" fill="none" id="DbSet-to-DeviceEntity" style="stroke:#181818;stroke-width:1;"/><polygon fill="#181818" points="505,576.3611,509,567.3611,505,571.3611,501,567.3611,505,576.3611" style="stroke:#181818;stroke-width:1;"/></g><!--link ManageDeviceRequestHandler to DeviceInfoEvent--><g class="link" data-entity-1="ManageDeviceRequestHandler" data-entity-2="DeviceInfoEvent" data-source-line="66" data-uid="lnk20" id="link_ManageDeviceRequestHandler_DeviceInfoEvent"><path codeLine="66" d="M362.23,131.8011 C347.5,140.0611 333.68,149.9011 322,161.6211 C308.92,174.7511 302.3907,187.5683 297.1707,204.4683" fill="none" id="ManageDeviceRequestHandler-to-DeviceInfoEvent" style="stroke:#181818;stroke-width:1;stroke-dasharray:7,7;"/><polygon fill="#181818" points="295.4,210.2011,301.8779,202.7824,296.8756,205.4238,294.2342,200.4215,295.4,210.2011" style="stroke:#181818;stroke-width:1;"/><text fill="#000000" font-family="sans-serif" font-size="13" lengthAdjust="spacing" textLength="173.418" x="323" y="176.6494">Publish(new DeviceInfoEvent)</text></g><!--SRC=[lLDBRjim4Dtp55mgQ9m328QAm3QQB084iNe0YfmuHAIX8b9gZQ903z4JzYGTaM8b2uwCRBhYpEDytloSTYNmZL70__pwpRVGQGbFSD3MDSUKFmWK1uZeMmlMtGbK9JICoL9Oks31Vp3EFmKbaQQgI3eRyPfBWHBAKZXjC3UlW2dVpA6hbEV2lbBCrLvqon47s_MNLglF6VkvG3Qm3D0zFfkKZ_BeE68dzfIT-gJnq6DVBJIdI7wiOQhldN0G4tWbnBAoqNLVw3zZIWpOLbDJd_XMAL3qxb0KfPUssaRn2IhJaNI6zQu374hjAVg-UEL2nN4JjiN6e8Fl9-sov5dimQs3kaEdtJ7pXTA0DYy23s1lxH5b4WUYqMNp7C7lbDn_wl50mnUHPumHFMYUXGH-_o3gEkumoUkSGZYDVX-pn9gsaT1NDO47q-7pcglnYomxe_re9ZaUswBKzcM7gZOwpcS0YKzIWRMqhvJbOoT2MHREShNAtfrkobLnoJUs9kML5oxQpyjCUIEAGZi27djWAS3DJNRkQi-vJ0hpgpovsV4dRCHxvNkxVXjut23BWZv62ElABf6UtrxAXpOa2D_clrViBm00]--></g></svg>